# xmcd
#
# Track frame offsets: 
#        151
#        25894
#        54125
#        74642
#        95897
#        114788
#        136617
#        158788
#        174601
#        201532
#
# Disc length: 3036 seconds
#
# Revision: 0
# Processed by: cddbd v1.4PL0 Copyright (c) Steve Scherf et al.
# Submitted via: ExactAudioCopy v0.90b4
#
DISCID=870bda0a
DTITLE=Various Artist - Con gai Bay Gio
DYEAR=2003
DGENRE=World
TTITLE0=Con Gai Bay Gio
TTITLE1=Hoa Tim Ngay Xua
TTITLE2=Chieu Xuan
TTITLE3=Tinh Yeu Ban Dau
TTITLE4=Tinh Thoi Xot Xa
TTITLE5=Chuyen Gi Se Xay Ra
TTITLE6=Dong Song Lo Dang
TTITLE7=Tia Nang Duoi Mua
TTITLE8=Thoi Anh Hay Ve
TTITLE9=Co Phai Em Mua Thu Ha Noi
EXTD=
EXTT0=
EXTT1=
EXTT2=
EXTT3=
EXTT4=
EXTT5=
EXTT6=
EXTT7=
EXTT8=
EXTT9=
PLAYORDER=
